<?xml version="1.0" encoding="iso-8859-1"?>
<!-- Generator: Adobe Illustrator 19.0.0, SVG Export Plug-In . SVG Version: 6.00 Build 0)  -->
<svg xmlns="http://www.w3.org/2000/svg" xmlns:xlink="http://www.w3.org/1999/xlink" version="1.1" id="Layer_1" x="0px" y="0px" viewBox="0 0 496 496" style="enable-background:new 0 0 496 496;" xml:space="preserve" width="512px" height="512px">
<g>
	<g>
		<path d="M480,240H336v-88c0-28.624-21.608-52.272-49.36-55.568C297.312,86.232,304,71.896,304,56c0-30.88-25.128-56-56-56    s-56,25.12-56,56c0,15.896,6.688,30.232,17.36,40.432C181.608,99.728,160,123.376,160,152v88h-32v-32h16v-48H16v-40h32v24h96V80    H48v24H0v56v8v40h16v32c-8.824,0-16,7.176-16,16v32c0,8.824,7.176,16,16,16v152c0,22.056,17.944,40,40,40h384    c22.056,0,40-17.944,40-40V304c8.824,0,16-7.176,16-16v-32C496,247.176,488.824,240,480,240z M64,96h64v32H64V96z M288,112.808    c18.232,3.72,32,19.88,32,39.192v88h-16v-83.312l-16-16V112.808z M208,56c0-22.056,17.944-40,40-40c22.056,0,40,17.944,40,40    c0,22.056-17.944,40-40,40C225.944,96,208,78.056,208,56z M272,112v24h-48v-24H272z M219.312,152h57.376L288,163.312V240h-80    v-76.688L219.312,152z M176,152c0-19.312,13.768-35.472,32-39.192v27.88l-16,16V240h-16V152z M16,176h112v16H16V176z M112,208v32    H32v-32H112z M464,456c0,13.232-10.768,24-24,24H56c-13.232,0-24-10.768-24-24v-24h432V456z M32,416V304h48v112H32z M160,320v-16    h48v112h-48v-80h-16v80H96V304h48v16H160z M224,416V304h48v112H224z M288,416V304h48v112H288z M464,416h-48v-16h-16v16h-48V304h48    v80h16v-80h48V416z M480,288H16v-32h112h32h176h144V288z" fill="#FFFFFF"/>
	</g>
</g>
<g>
</g>
<g>
</g>
<g>
</g>
<g>
</g>
<g>
</g>
<g>
</g>
<g>
</g>
<g>
</g>
<g>
</g>
<g>
</g>
<g>
</g>
<g>
</g>
<g>
</g>
<g>
</g>
<g>
</g>
</svg>
