<?xml version="1.0" encoding="iso-8859-1"?>
<!-- Generator: Adobe Illustrator 19.0.0, SVG Export Plug-In . SVG Version: 6.00 Build 0)  -->
<svg xmlns="http://www.w3.org/2000/svg" xmlns:xlink="http://www.w3.org/1999/xlink" version="1.1" id="Capa_1" x="0px" y="0px" viewBox="0 0 512.004 512.004" style="enable-background:new 0 0 512.004 512.004;" xml:space="preserve" width="512px" height="512px">
<g>
	<g>
		<path d="M216.939,81.568c-0.491-3.075-2.832-5.528-5.882-6.161c-0.1-0.021-3.309-0.698-8.206-2.03    c-0.354-9.159-2.178-18.441-5.491-27.676c-5.399-15.054-17.714-27.305-35.614-35.428C146.114,3.179,126.572-0.45,106.747,0.045    C60.957,1.195,25.154,22.455,15.535,54.21c-9.769,32.257-3.927,54.348,4.061,68.207c-3.45,4.916-5.483,10.896-5.483,17.345    c0,16.69,13.575,30.27,30.26,30.27c0.178,0,0.354-0.017,0.532-0.02c2.624,12.856,9.196,24.581,18.967,33.571    c5.399,4.967,11.555,8.882,18.176,11.666v5.111c-13.294,4.016-25.419,11.271-35.349,21.2c-0.208,0.208-0.401,0.427-0.607,0.637    c-0.073,0.072-0.149,0.136-0.22,0.211c-0.054,0.057-0.099,0.119-0.151,0.177c-15.385,15.895-23.859,36.76-23.859,58.936    c0,4.143,3.358,7.5,7.5,7.5h63.279c4.142,0.003,7.5-3.354,7.5-7.497c0-4.143-3.358-7.5-7.5-7.5H37.257    c1.39-13.098,6.423-25.391,14.587-35.708l22.546,21.191c2.927,2.751,7.502,2.706,10.375-0.098l21.904-21.382l21.904,21.382    c1.455,1.421,3.346,2.133,5.239,2.133c1.845,0,3.691-0.677,5.136-2.035l22.446-21.097c7.976,10.13,13.214,22.426,14.666,35.614    h-55.677c-4.142,0-7.5,3.357-7.5,7.5c0,4.143,3.358,7.5,7.5,7.5h63.589c4.142,0,7.5-3.357,7.5-7.5    c0-19.349-6.689-38.274-18.836-53.289c-1.598-1.975-3.287-3.867-5.049-5.683c-0.042-0.046-0.077-0.096-0.12-0.142    c-0.178-0.189-0.363-0.367-0.554-0.533c-9.91-9.988-22.201-17.415-35.621-21.494v-5.4c6.378-2.765,12.31-6.591,17.535-11.398    c9.771-8.991,16.343-20.716,18.967-33.571c0.177,0.003,0.352,0.02,0.529,0.02c16.691,0,30.27-13.579,30.27-30.27    c0-7.626-2.84-14.596-7.511-19.925c4.438-7.706,7.661-15.765,9.618-24.063c4.158-1.935,8.351-4.099,12.569-6.522    C215.969,87.704,217.43,84.645,216.939,81.568z M29.112,139.765c0-7.149,4.952-13.167,11.577-14.811l2.504,30.021    C35.329,154.369,29.112,147.787,29.112,139.765z M79.428,263.658l-17.083-16.056c6.096-5.019,12.966-8.948,20.337-11.638    c1.402,6.072,5.052,11.291,10.027,14.729L79.428,263.658z M116.29,230.424c0,5.306-4.316,9.622-9.622,9.622    c-5.306,0-9.622-4.316-9.622-9.622v-4.262c0-0.08,0.002-0.159,0-0.24v-6.467c3.059,0.457,6.165,0.699,9.301,0.699    c3.356,0,6.677-0.282,9.943-0.804V230.424z M150.925,247.664l-17.016,15.994l-13.282-12.966c4.972-3.435,8.62-8.649,10.024-14.715    C138.108,238.721,144.941,242.706,150.925,247.664z M157.654,116.675c-0.003,0.047-0.009,0.093-0.012,0.14l-3.726,44.576    c-2.044,24.541-22.939,43.764-47.569,43.764c-24.63,0.001-45.525-19.222-47.569-43.763l-0.054-0.653    c-0.002-0.022-0.003-0.043-0.005-0.065l-3.66-43.884c-0.001-0.023-0.004-0.046-0.006-0.07l-1.325-15.885    c4.545-2.862,8.094-5.821,10.602-8.198c7.42,3.889,21.975,10.507,41.29,14.415c8.795,1.779,19.188,3.088,30.731,3.088    c6.943,0,14.304-0.475,21.983-1.604L157.654,116.675z M169.505,154.975l2.508-30.01c6.638,1.658,11.577,7.656,11.577,14.8    C183.591,147.785,177.372,154.367,169.505,154.975z M173.272,109.908l0.372-4.445c2.995-0.764,6.024-1.632,9.085-2.62    c-1.165,2.867-2.529,5.692-4.075,8.471C176.928,110.685,175.128,110.214,173.272,109.908z M165.827,91.998    c-0.583,0.061-1.148,0.191-1.687,0.381c-17.84,3.762-36.213,3.804-54.963,0.088C83.749,87.429,67.097,77,66.944,76.903    c-3.278-2.094-7.615-1.336-9.986,1.749c-0.075,0.098-7.861,9.843-22.34,14.839c-3.916,1.352-5.995,5.62-4.644,9.536    c1.322,3.83,5.435,5.895,9.28,4.718l0.18,2.161c-2.883,0.476-5.632,1.354-8.181,2.586c-7.371-14.445-7.841-32.542-1.363-53.93    c9.368-30.925,47.46-42.771,77.233-43.52c31.234-0.793,66.876,9.958,76.118,35.728c2.132,5.943,3.541,11.883,4.222,17.755    c-8.963-3.253-18.77-7.653-26.117-13.209c-3.304-2.498-8.009-1.845-10.506,1.459c-2.498,3.304-1.845,8.008,1.459,10.506    c10.546,7.975,24.802,13.745,36.257,17.488C181.09,87.876,173.507,90.274,165.827,91.998z" fill="#FFFFFF"/>
	</g>
</g>
<g>
	<g>
		<path d="M76.96,127.494c-4.142,0-7.5,3.357-7.5,7.5v1.22c0,4.143,3.358,7.5,7.5,7.5s7.5-3.357,7.5-7.5v-1.22    C84.46,130.851,81.103,127.494,76.96,127.494z" fill="#FFFFFF"/>
	</g>
</g>
<g>
	<g>
		<path d="M135.592,127.494c-4.142,0-7.5,3.357-7.5,7.5v1.22c0,4.142,3.358,7.5,7.5,7.5c4.142,0,7.5-3.357,7.5-7.5v-1.22    C143.092,130.851,139.734,127.494,135.592,127.494z" fill="#FFFFFF"/>
	</g>
</g>
<g>
	<g>
		<path d="M126.891,167.412c-2.516-3.29-7.223-3.915-10.514-1.4c-2.17,1.659-5.578,2.65-9.116,2.65s-6.946-0.991-9.116-2.65    c-3.291-2.515-7.998-1.888-10.514,1.4c-2.517,3.29-1.89,7.997,1.4,10.514c4.836,3.699,11.311,5.736,18.229,5.736    c6.918,0,13.394-2.036,18.231-5.736C128.781,175.409,129.408,170.702,126.891,167.412z" fill="#FFFFFF"/>
	</g>
</g>
<g>
	<g>
		<path d="M501.49,289.608c-0.489-3.075-2.83-5.528-5.878-6.163c-0.116-0.024-3.972-0.843-9.784-2.442    c-0.327-10.303-2.371-20.774-6.111-31.212c-5.812-16.195-18.969-29.487-38.05-38.438c-30.867-14.478-74.654-15.814-108.964-3.327    c-3.893,1.417-5.899,5.721-4.482,9.613c1.416,3.893,5.721,5.894,9.613,4.482c30.807-11.214,69.973-10.083,97.463,2.813    c10.731,5.033,24.699,14.311,30.3,29.92c2.564,7.155,4.179,14.294,4.876,21.333c-10.4-3.694-22.009-8.792-30.601-15.289    c-3.305-2.5-8.009-1.845-10.506,1.459c-2.498,3.304-1.845,8.008,1.459,10.506c12.349,9.337,29.311,15.947,42.34,20.062    c-9.078,3.931-18.306,6.946-27.667,9.042c-0.51,0.051-1.007,0.153-1.484,0.302c-20.118,4.292-40.839,4.373-61.995,0.172    c-28.475-5.653-47.114-17.338-47.289-17.448c-3.277-2.094-7.613-1.335-9.986,1.749c-0.084,0.11-8.923,11.175-25.294,16.823    c-3.916,1.351-5.994,5.62-4.644,9.536c1.351,3.914,5.62,5.997,9.536,4.644c0.256-0.088,0.5-0.184,0.753-0.275l0.359,4.311    c-3.694,0.518-7.191,1.654-10.388,3.299c-8.556-16.346-9.269-37.42-1.978-61.492c3.442-11.375,10.653-21.199,21.432-29.2    c3.325-2.47,4.021-7.167,1.552-10.493c-2.469-3.326-7.166-4.021-10.493-1.552c-13.419,9.962-22.452,22.377-26.847,36.898    c-10.917,36.044-4.231,60.561,4.717,75.805c-3.938,5.42-6.269,12.08-6.269,19.278c0,18.125,14.74,32.87,32.859,32.87    c0.43,0,0.857-0.032,1.285-0.049c2.793,14.434,10.094,27.607,21.03,37.666c6.084,5.596,13.04,9.979,20.525,13.053v6.931    c-9.143,2.701-17.801,6.765-25.791,12.165c-3.432,2.32-4.333,6.982-2.014,10.414c1.45,2.145,3.813,3.301,6.221,3.301    c1.445,0,2.906-0.417,4.193-1.287c5.6-3.786,11.591-6.782,17.877-8.993c2.365,12.25,13.163,21.532,26.093,21.532    c12.937,0,23.739-9.292,26.097-21.551c11.04,3.871,21.122,10.191,29.516,18.579c5.318,5.323,9.879,11.445,13.481,18.05H310.365    c1.849-3.389,3.954-6.651,6.302-9.764c2.495-3.307,1.836-8.01-1.471-10.504c-3.307-2.495-8.01-1.836-10.504,1.471    c-5.484,7.271-9.858,15.238-13.001,23.681c-0.857,2.302-0.532,4.878,0.869,6.896c1.401,2.018,3.702,3.221,6.159,3.221h161.477    c2.456,0,4.757-1.202,6.158-3.22c1.402-2.017,1.728-4.592,0.872-6.894c-4.637-12.473-12.087-24.069-21.55-33.543    c-11.12-11.112-24.729-19.181-39.64-23.574v-7.205c7.215-3.058,13.924-7.339,19.815-12.758    c10.936-10.059,18.236-23.232,21.028-37.666c0.428,0.017,0.855,0.049,1.285,0.049c18.119,0,32.86-14.745,32.86-32.87    c0-8.501-3.243-16.258-8.556-22.099c5.135-8.799,8.832-18.02,11.034-27.523c4.733-2.19,9.509-4.651,14.313-7.409    C500.518,295.741,501.979,292.683,501.49,289.608z M292.18,354.323c0-8.711,6.266-15.976,14.522-17.546l0.35,4.205    c-0.823,3.03-1.269,6.212-1.269,9.499c0,5.409,1.198,10.54,3.328,15.156l0.544,6.536    C299.985,371.966,292.18,364.046,292.18,354.323z M319.567,310.501c5.513-3.416,9.713-6.983,12.569-9.741    c8.029,4.258,24.405,11.831,46.325,16.267c5.427,1.098,11.42,2.022,17.858,2.637c-8.251,5.146-14.296,13.506-16.366,23.318H377.6    c-3.465-16.429-18.072-28.801-35.517-28.801c-8.091,0-15.572,2.663-21.614,7.156L319.567,310.501z M342.084,329.181    c11.745,0,21.301,9.556,21.301,21.301c0,11.746-9.556,21.302-21.301,21.302c-11.747,0-21.302-9.556-21.302-21.302    C320.782,338.736,330.338,329.181,342.084,329.181z M391.04,450.403L391.04,450.403c0,0.023,0,0.046,0,0.069v4.874    c0,6.386-5.194,11.58-11.58,11.58s-11.58-5.194-11.58-11.58v-13.235c3.687,0.605,7.438,0.932,11.229,0.932    c4.032,0,8.019-0.364,11.931-1.047V450.403z M379.109,428.043c-26.386,0-48.982-19.494-53.307-45.131    c4.901,2.471,10.429,3.871,16.282,3.871c17.446,0,32.052-12.372,35.517-28.802h2.353c3.465,16.43,18.072,28.802,35.517,28.802    c6.136,0,11.918-1.536,16.991-4.235C428.289,408.364,405.613,428.043,379.109,428.043z M415.47,371.783    c-11.745,0-21.301-9.556-21.301-21.302c0-11.745,9.556-21.301,21.301-21.301c11.746,0,21.302,9.556,21.302,21.301    C436.772,362.227,427.216,371.783,415.47,371.783z M437.699,321.813c-1.27-0.987-2.606-1.89-4.002-2.704    c1.415-0.18,2.841-0.38,4.277-0.601L437.699,321.813z M453.284,315.416c4.074-1.024,8.208-2.229,12.391-3.629    c-1.539,4.043-3.414,8.015-5.619,11.902c-2.319-0.904-4.763-1.552-7.302-1.908L453.284,315.416z M448.553,372.173l0.705-8.443    c1.617-4.108,2.515-8.574,2.515-13.249c0-2.57-0.273-5.077-0.783-7.498l0.517-6.206c8.257,1.57,14.522,8.835,14.522,17.546    C466.028,364.046,458.222,371.966,448.553,372.173z" fill="#FFFFFF"/>
	</g>
</g>
<g>
	<g>
		<path d="M346.354,341.503c-4.143,0-7.5,3.357-7.5,7.5v1.359c0,4.142,3.357,7.5,7.5,7.5s7.5-3.357,7.5-7.5v-1.359    C353.854,344.86,350.497,341.503,346.354,341.503z" fill="#FFFFFF"/>
	</g>
</g>
<g>
	<g>
		<path d="M411.69,341.503c-4.143,0-7.5,3.357-7.5,7.5v1.359c0,4.142,3.357,7.5,7.5,7.5s7.5-3.357,7.5-7.5v-1.359    C419.19,344.86,415.833,341.503,411.69,341.503z" fill="#FFFFFF"/>
	</g>
</g>
<g>
	<g>
		<path d="M401.313,392.703c-2.514-3.288-7.221-3.917-10.512-1.402c-2.602,1.989-6.494,3.13-10.681,3.13s-8.079-1.141-10.681-3.13    c-3.291-2.517-7.998-1.888-10.514,1.402c-2.516,3.291-1.888,7.998,1.402,10.514c5.241,4.007,12.27,6.214,19.792,6.214    c7.522,0,14.551-2.207,19.792-6.214C403.2,400.701,403.828,395.994,401.313,392.703z" fill="#FFFFFF"/>
	</g>
</g>
<g>
	<g>
		<path d="M440.988,125.942c-3.926-1.313-8.177,0.805-9.491,4.733l-5.488,16.409C387.105,86.638,321.382,48.784,249.531,45.659    c-4.139-0.199-7.639,3.029-7.819,7.167c-0.18,4.14,3.029,7.64,7.167,7.82c67.953,2.954,130.047,39.22,166.102,97.01    c0.067,0.108,0.148,0.202,0.219,0.305l-22.994-7.69c-3.926-1.316-8.177,0.806-9.491,4.733c-1.314,3.929,0.806,8.178,4.733,9.491    l36.556,12.226c0.789,0.265,1.591,0.39,2.38,0.39c3.137,0,6.062-1.984,7.111-5.123l12.226-36.556    C447.035,131.503,444.915,127.254,440.988,125.942z" fill="#FFFFFF"/>
	</g>
</g>
<g>
	<g>
		<path d="M263.101,451.352c-67.953-2.955-130.048-39.221-166.102-97.01c-0.066-0.105-0.14-0.201-0.21-0.302l22.984,7.687    c3.931,1.32,8.178-0.806,9.492-4.733c1.314-3.929-0.806-8.178-4.734-9.491l-36.555-12.226c-1.886-0.634-3.946-0.487-5.726,0.4    c-1.78,0.888-3.135,2.446-3.766,4.333l-12.226,36.556c-1.314,3.929,0.806,8.178,4.734,9.491c0.79,0.265,1.591,0.39,2.38,0.39    c3.137,0,6.062-1.984,7.112-5.123l5.488-16.409c38.905,60.444,104.627,98.299,176.478,101.424    c0.111,0.005,0.222,0.007,0.332,0.007c3.991,0,7.312-3.147,7.487-7.174C270.448,455.033,267.239,451.533,263.101,451.352z" fill="#FFFFFF"/>
	</g>
</g>
<g>
</g>
<g>
</g>
<g>
</g>
<g>
</g>
<g>
</g>
<g>
</g>
<g>
</g>
<g>
</g>
<g>
</g>
<g>
</g>
<g>
</g>
<g>
</g>
<g>
</g>
<g>
</g>
<g>
</g>
</svg>
