<?xml version="1.0" encoding="iso-8859-1"?>
<!-- Generator: Adobe Illustrator 19.0.0, SVG Export Plug-In . SVG Version: 6.00 Build 0)  -->
<svg xmlns="http://www.w3.org/2000/svg" xmlns:xlink="http://www.w3.org/1999/xlink" version="1.1" id="Capa_1" x="0px" y="0px" viewBox="0 0 512 512" style="enable-background:new 0 0 512 512;" xml:space="preserve" width="512px" height="512px">
<g>
	<g>
		<path d="M461.913,4.279c-1.273-2.616-3.928-4.275-6.836-4.275h-48.331h-52.863h-48.341c-2.337,0-4.544,1.075-5.986,2.914    l-43.555,55.591L212.443,2.917c-1.442-1.839-3.649-2.914-5.986-2.914h-48.282c-0.017,0-0.034-0.003-0.052-0.003h-52.867    c-0.014,0-0.027,0.003-0.042,0.003H56.923c-2.909,0-5.563,1.66-6.836,4.275c-1.273,2.616-0.943,5.728,0.852,8.019l101.294,129.275    c-2.517,3.422-3.949,7.603-3.949,12.011v74.413c-33.565,29.787-54.758,73.224-54.758,121.523    C93.526,439.112,166.413,512,256.005,512s162.479-72.888,162.479-162.48c0-48.304-21.196-91.744-54.767-121.532v-74.405    c0-4.489-1.484-8.629-3.964-11.993L461.062,12.296C462.856,10.007,463.187,6.894,461.913,4.279z M357.585,15.21h33.544v0.001    l-84.525,107.878l-16.775-21.41L357.585,15.21z M309.245,15.211h29.02l-58.096,74.14l-14.506-18.514L309.245,15.211z     M202.756,15.211l112.393,143.441h-20.221h-8.789L173.744,15.211H202.756z M323.163,173.86v27.721    c-20.48-9.334-43.222-14.541-67.158-14.541c-23.94,0-46.685,5.208-67.168,14.545V173.86H323.163z M72.542,15.211h29.016    l39.915,50.94c2.59,3.305,7.369,3.885,10.675,1.296l0.001-0.001c3.305-2.59,3.885-7.369,1.296-10.675l-32.565-41.56h33.546    l112.393,143.441h-33.546l-57.129-72.911c-2.59-3.305-7.369-3.885-10.675-1.296l-0.001,0.001    c-3.305,2.59-3.885,7.369-1.296,10.675l49.78,63.531h-29.016L72.542,15.211z M173.629,168.882v40.643    c-3.464,2.046-6.846,4.217-10.139,6.506v-60.089L173.629,168.882z M403.277,349.52c0,81.206-66.066,147.273-147.271,147.273    c-81.206,0-147.271-66.066-147.271-147.273S174.8,202.248,256.005,202.248S403.277,268.314,403.277,349.52z M338.329,165.459    c-0.001-0.011-0.004-0.021-0.005-0.032c-0.033-0.311-0.091-0.613-0.161-0.911c-0.016-0.07-0.036-0.14-0.054-0.21    c-0.072-0.274-0.158-0.54-0.26-0.801c-0.015-0.04-0.027-0.079-0.043-0.118c-0.123-0.301-0.265-0.591-0.424-0.871    c-0.029-0.053-0.063-0.102-0.093-0.154c-0.143-0.239-0.298-0.468-0.466-0.69c-0.026-0.034-0.045-0.072-0.072-0.105l-10.227-13.052    h16.915c2.795,0,5.069,2.274,5.069,5.069v62.441c-3.292-2.288-6.673-4.459-10.138-6.505v-43.263    C338.371,165.986,338.356,165.721,338.329,165.459z M346.699,133.592c-1.064-0.172-2.147-0.287-3.259-0.287H317.92l92.529-118.095    h29.01L346.699,133.592z" fill="#ffffff"/>
	</g>
</g>
<g>
	<g>
		<path d="M367.355,295.946c-1.919-3.99-6.781-5.561-10.632-3.378l-0.007,0.004c-3.486,1.976-4.827,6.311-3.088,9.921    c7.027,14.584,10.714,30.703,10.714,47.027c0,61.159-50.939,110.644-112.62,108.255c-56.227-2.178-101.795-47.746-103.973-103.973    c-2.389-61.679,47.096-112.62,108.255-112.62c29.881,0,58.127,12.209,78.556,33.729c2.767,2.915,7.307,3.208,10.396,0.637    c3.367-2.803,3.69-7.883,0.676-11.062c-23.299-24.57-55.529-38.51-89.627-38.51c-69.745,0-126.176,58.092-123.451,128.43    c2.484,64.12,54.449,116.084,118.569,118.567c70.338,2.723,128.427-53.708,128.427-123.451    C379.551,330.932,375.354,312.572,367.355,295.946z" fill="#ffffff"/>
	</g>
</g>
<g>
	<g>
		<path d="M261.94,266.868c-2.678,0-4.463,0.893-6.025,2.455l-23.208,22.316c-2.902,2.008-4.687,5.802-4.687,9.149    c0,4.687,3.347,9.596,8.034,9.596c1.338,0,3.347-0.669,4.909-2.232l7.811-9.819h0v124.076c0,5.132,5.802,7.811,11.828,7.811    c5.802,0,11.828-2.678,11.828-7.811V274.678C272.429,269.768,266.849,266.868,261.94,266.868z" fill="#ffffff"/>
	</g>
</g>
<g>
</g>
<g>
</g>
<g>
</g>
<g>
</g>
<g>
</g>
<g>
</g>
<g>
</g>
<g>
</g>
<g>
</g>
<g>
</g>
<g>
</g>
<g>
</g>
<g>
</g>
<g>
</g>
<g>
</g>
</svg>
