<?xml version="1.0" encoding="iso-8859-1"?>
<!-- Generator: Adobe Illustrator 19.0.0, SVG Export Plug-In . SVG Version: 6.00 Build 0)  -->
<svg xmlns="http://www.w3.org/2000/svg" xmlns:xlink="http://www.w3.org/1999/xlink" version="1.1" id="Capa_1" x="0px" y="0px" viewBox="0 0 512.001 512.001" style="enable-background:new 0 0 512.001 512.001;" xml:space="preserve" width="512px" height="512px">
<g>
	<g>
		<path d="M460.97,2.796c-1.473-1.825-3.766-2.793-6.112-2.793h-48.112h-52.863h-48.342c-2.337,0-4.544,1.075-5.985,2.914    l-43.555,55.591L212.444,2.917c-1.442-1.839-3.648-2.914-5.985-2.914h-48.283c-0.017,0-0.034-0.003-0.052-0.003h-52.866    c-0.014,0-0.027,0.003-0.042,0.003H57.144c-2.346,0-4.639,0.969-6.114,2.793c-2.291,2.836-2.241,6.758-0.092,9.501    l101.294,129.275c-2.517,3.422-3.949,7.604-3.949,12.011v74.413c-34.492,30.609-55.918,75.63-54.709,125.531    c2.082,85.984,71.693,155.931,157.667,158.404c91.757,2.639,167.245-71.237,167.245-162.411    c0-48.304-21.196-91.743-54.767-121.531v-74.406c0-4.49-1.484-8.63-3.964-11.993l50.736-64.75    c2.589-3.305,2.01-8.084-1.295-10.673l-0.002-0.002c-3.305-2.589-8.084-2.01-10.674,1.295l-51.82,66.133    c-1.064-0.172-2.147-0.287-3.26-0.287H317.92l92.528-118.095h29.011l-19.763,25.223c-2.589,3.305-2.009,8.083,1.295,10.673    l0.002,0.002c3.305,2.589,8.084,2.01,10.674-1.295l29.396-37.517C463.211,9.555,463.261,5.632,460.97,2.796z M309.244,15.211    h29.021l-58.096,74.14l-14.506-18.514L309.244,15.211z M202.756,15.211l112.393,143.441h-20.22h-8.79L173.745,15.211H202.756z     M154.424,15.211l112.394,143.441h-33.546L120.879,15.211H154.424z M72.542,15.211h29.016L213.95,158.652h-29.016L72.542,15.211z     M173.63,168.882v40.643c-3.464,2.047-6.846,4.217-10.139,6.506v-60.089L173.63,168.882z M403.277,349.52    c0,81.206-66.066,147.273-147.271,147.273S108.734,430.726,108.734,349.52S174.8,202.248,256.005,202.248    S403.277,268.314,403.277,349.52z M343.443,148.512c2.794,0.001,5.068,2.276,5.068,5.07v62.441    c-3.293-2.289-6.674-4.459-10.139-6.505v-43.263c0-0.271-0.015-0.537-0.043-0.801c0-0.004-0.001-0.009-0.002-0.014    c-0.033-0.317-0.093-0.627-0.164-0.932c-0.016-0.067-0.033-0.133-0.052-0.2c-0.074-0.278-0.16-0.549-0.264-0.815    c-0.014-0.035-0.024-0.071-0.039-0.105c-0.124-0.303-0.267-0.594-0.426-0.876c-0.028-0.05-0.06-0.098-0.089-0.147    c-0.144-0.241-0.301-0.474-0.47-0.698c-0.025-0.033-0.044-0.07-0.07-0.103l-10.227-13.052H343.443z M323.164,173.86v27.721    c-20.481-9.334-43.223-14.541-67.159-14.541c-23.94,0-46.685,5.208-67.167,14.545V173.86H323.164z M306.605,123.09l-16.775-21.41    l67.756-86.469h33.543L306.605,123.09z" fill="#ffffff"/>
	</g>
</g>
<g>
	<g>
		<path d="M379.455,344.637c-2.483-64.121-54.448-116.084-118.568-118.568c-70.338-2.724-128.428,53.707-128.428,123.451    c0,2.737,0.09,5.485,0.271,8.22c0.286,4.352,4.245,7.53,8.569,6.963l0.011-0.001c3.972-0.52,6.85-4.032,6.589-8.03    c-0.155-2.38-0.233-4.769-0.233-7.152c0-61.159,50.94-110.645,112.621-108.255c56.227,2.179,101.794,47.747,103.971,103.975    c2.389,61.679-47.096,112.618-108.255,112.618c-44.881,0-84.516-27.227-100.772-68.461c-1.478-3.749-5.575-5.74-9.413-4.51    l-0.003,0.001c-4.156,1.332-6.377,5.899-4.78,9.96c8.456,21.507,22.675,40.055,41.469,53.985    c21.387,15.854,46.804,24.232,73.5,24.232C325.748,473.066,382.18,414.975,379.455,344.637z" fill="#ffffff"/>
	</g>
</g>
<g>
	<g>
		<path d="M300.245,404.613h-65.608v-8.48c0-25.663,72.304-41.284,72.304-89.263c0-26.779-21.87-44.409-47.756-44.409    c-24.326,0-45.748,15.623-45.746,39.5c0,10.041,4.463,13.166,10.711,13.166c7.81,0,12.497-4.464,12.497-8.927    c0-15.175,10.042-22.093,22.539-22.093c16.96,0,24.1,12.497,24.1,23.431c0,34.368-72.974,52.443-72.974,88.594v21.647    c0,4.687,6.025,7.811,10.488,7.811h79.444c4.017,0,7.811-5.132,7.811-10.711C308.056,409.299,304.262,404.613,300.245,404.613z" fill="#ffffff"/>
	</g>
</g>
<g>
</g>
<g>
</g>
<g>
</g>
<g>
</g>
<g>
</g>
<g>
</g>
<g>
</g>
<g>
</g>
<g>
</g>
<g>
</g>
<g>
</g>
<g>
</g>
<g>
</g>
<g>
</g>
<g>
</g>
</svg>
