<?xml version="1.0" encoding="iso-8859-1"?>
<!-- Generator: Adobe Illustrator 19.0.0, SVG Export Plug-In . SVG Version: 6.00 Build 0)  -->
<svg xmlns="http://www.w3.org/2000/svg" xmlns:xlink="http://www.w3.org/1999/xlink" version="1.1" id="Layer_1" x="0px" y="0px" viewBox="0 0 512.001 512.001" style="enable-background:new 0 0 512.001 512.001;" xml:space="preserve" width="512px" height="512px">
<g>
	<g>
		<path d="M384.138,132.874L354.856,8.793c-0.954-4.04-5.004-6.539-9.04-5.588c-4.039,0.953-6.541,5.001-5.588,9.04l29.283,124.081    c0.817,3.459,3.902,5.79,7.307,5.79c0.571,0,1.151-0.065,1.731-0.202C382.589,140.961,385.091,136.913,384.138,132.874z" fill="#FFFFFF"/>
	</g>
</g>
<g>
	<g>
		<path d="M470.721,499.755L389.845,157.05c-0.954-4.04-5.009-6.54-9.04-5.588c-4.039,0.953-6.541,5.001-5.588,9.04l80.876,342.704    c0.817,3.459,3.902,5.79,7.307,5.79c0.571,0,1.152-0.065,1.732-0.202C469.172,507.841,471.674,503.794,470.721,499.755z" fill="#FFFFFF"/>
	</g>
</g>
<g>
	<g>
		<path d="M61.869,445.229c-4.033-0.951-8.087,1.548-9.04,5.588l-11.549,48.938c-0.953,4.039,1.549,8.087,5.588,9.04    c0.58,0.137,1.16,0.202,1.732,0.202c3.405,0,6.492-2.332,7.307-5.79l11.549-48.938C68.41,450.23,65.908,446.182,61.869,445.229z" fill="#FFFFFF"/>
	</g>
</g>
<g>
	<g>
		<path d="M166.184,3.205c-4.032-0.953-8.086,1.548-9.04,5.588L60.301,419.154c-0.953,4.039,1.549,8.087,5.588,9.04    c0.58,0.137,1.16,0.202,1.732,0.202c3.406,0,6.492-2.332,7.308-5.79l96.843-410.361C172.725,8.206,170.223,4.158,166.184,3.205z" fill="#FFFFFF"/>
	</g>
</g>
<g>
	<g>
		<path d="M511.715,499.436L372.903,8.474c-1.129-3.995-5.286-6.315-9.275-5.187c-3.994,1.129-6.316,5.282-5.187,9.276    l138.812,490.962c0.936,3.31,3.949,5.472,7.227,5.472c0.677,0,1.365-0.092,2.049-0.286    C510.522,507.583,512.845,503.43,511.715,499.436z" fill="#FFFFFF"/>
	</g>
</g>
<g>
	<g>
		<path d="M148.373,3.288c-3.991-1.128-8.147,1.192-9.275,5.187L0.285,499.437c-1.129,3.994,1.192,8.147,5.186,9.276    c0.684,0.193,1.372,0.286,2.049,0.286c3.277,0,6.291-2.162,7.227-5.472L153.56,12.565C154.688,8.569,152.366,4.417,148.373,3.288z    " fill="#FFFFFF"/>
	</g>
</g>
<g>
	<g>
		<path d="M275.455,10.287c-0.127-4.148-3.564-7.417-7.742-7.28c-4.149,0.127-7.409,3.594-7.28,7.742l0.884,28.755h-10.632    l0.884-28.755c0.128-4.148-3.131-7.615-7.28-7.742c-4.098-0.127-7.615,3.132-7.742,7.28l-1.122,36.502    c-0.063,2.032,0.7,4.003,2.116,5.463c1.416,1.459,3.362,2.283,5.396,2.283h26.131c2.033,0,3.98-0.824,5.395-2.283    c1.416-1.46,2.179-3.431,2.116-5.463L275.455,10.287z" fill="#FFFFFF"/>
	</g>
</g>
<g>
	<g>
		<path d="M277.158,65.665c-0.124-4.058-3.45-7.283-7.511-7.283h-27.293c-4.061,0-7.386,3.225-7.511,7.283l-1.974,64.086    c-0.063,2.032,0.7,4.003,2.115,5.463c1.416,1.459,3.363,2.284,5.396,2.284h31.241c2.033,0,3.98-0.824,5.396-2.284    c1.415-1.46,2.178-3.431,2.115-5.463L277.158,65.665z M248.129,122.468l1.511-49.056h12.72l1.511,49.056H248.129z" fill="#FFFFFF"/>
	</g>
</g>
<g>
	<g>
		<path d="M279.873,153.838c-0.124-4.058-3.451-7.283-7.511-7.283h-32.724c-4.06,0-7.386,3.225-7.511,7.283l-2.254,73.143    c-0.063,2.032,0.7,4.003,2.115,5.463c1.416,1.459,3.362,2.284,5.396,2.284h37.233c2.033,0,3.98-0.824,5.396-2.284    c1.415-1.46,2.178-3.431,2.115-5.463L279.873,153.838z M245.133,219.698l1.792-58.114h18.151l1.792,58.114H245.133z" fill="#FFFFFF"/>
	</g>
</g>
<g>
	<g>
		<path d="M283.17,260.978c-0.124-4.059-3.45-7.284-7.511-7.284h-39.317c-4.061,0-7.386,3.225-7.511,7.283l-2.745,89.245    c-0.063,2.032,0.7,4.003,2.116,5.463c1.415,1.46,3.361,2.284,5.394,2.284h44.808c2.033,0,3.98-0.824,5.395-2.283    c1.416-1.46,2.179-3.431,2.116-5.463L283.17,260.978z M241.345,342.939l2.284-74.215h24.743l2.281,74.215H241.345z" fill="#FFFFFF"/>
	</g>
</g>
<g>
	<g>
		<path d="M287.239,393.227c-0.126-4.059-3.452-7.283-7.513-7.283h-47.452c-4.061,0-7.386,3.225-7.511,7.283l-3.327,108.022    c-0.128,4.148,3.131,7.615,7.28,7.742c4.115,0.126,7.615-3.131,7.742-7.279l3.103-100.738h32.878l3.103,100.738    c0.125,4.07,3.463,7.283,7.507,7.283c0.078,0,0.156-0.001,0.234-0.004c4.149-0.127,7.409-3.594,7.28-7.742L287.239,393.227z" fill="#FFFFFF"/>
	</g>
</g>
<g>
</g>
<g>
</g>
<g>
</g>
<g>
</g>
<g>
</g>
<g>
</g>
<g>
</g>
<g>
</g>
<g>
</g>
<g>
</g>
<g>
</g>
<g>
</g>
<g>
</g>
<g>
</g>
<g>
</g>
</svg>
