<?xml version="1.0" encoding="iso-8859-1"?>
<!-- Generator: Adobe Illustrator 19.0.0, SVG Export Plug-In . SVG Version: 6.00 Build 0)  -->
<svg xmlns="http://www.w3.org/2000/svg" xmlns:xlink="http://www.w3.org/1999/xlink" version="1.1" id="Capa_1" x="0px" y="0px" viewBox="0 0 512.001 512.001" style="enable-background:new 0 0 512.001 512.001;" xml:space="preserve" width="512px" height="512px">
<g>
	<g>
		<path d="M460.97,2.796c-1.473-1.825-3.766-2.793-6.112-2.793h-48.112h-52.863h-48.342c-2.337,0-4.544,1.075-5.985,2.914    l-43.555,55.591L212.444,2.917c-1.441-1.839-3.649-2.914-5.985-2.914h-48.283c-0.017,0-0.034-0.003-0.052-0.003h-52.866    c-0.014,0-0.027,0.003-0.042,0.003H57.142c-2.345,0-4.638,0.969-6.112,2.793c-2.29,2.836-2.241,6.758-0.092,9.501l101.294,129.275    c-2.517,3.422-3.949,7.603-3.949,12.011v74.413c-34.507,30.623-55.937,75.672-54.707,125.6    c2.171,88.153,75.197,158.898,163.376,158.401c48.006-0.271,92.432-21.147,123.201-57.645c2.803-3.324,2.267-8.319-1.187-10.961    c-3.205-2.451-7.789-1.99-10.388,1.095c-28.968,34.39-71.3,53.494-116.755,52.248c-77.701-2.13-140.786-65.186-143.027-142.885    c-2.399-83.174,64.564-151.602,147.209-151.602c81.206,0,147.272,66.065,147.272,147.271c0,23.447-5.585,46.541-16.21,67.236    c-1.843,3.59-0.52,7.995,2.975,10.014l0.001,0.001c3.779,2.183,8.602,0.736,10.592-3.146    c11.699-22.819,17.849-48.272,17.849-74.104c0-48.304-21.196-91.743-54.767-121.531v-74.406c0-4.49-1.484-8.63-3.964-11.993    L461.061,12.299C463.21,9.555,463.261,5.632,460.97,2.796z M309.244,15.211h29.021l-11.896,15.182    c-2.589,3.305-2.009,8.083,1.295,10.673l0.002,0.002c3.305,2.589,8.083,2.01,10.674-1.295l19.245-24.561h33.543l-84.524,107.879    l-16.775-21.41l26.03-33.219c2.589-3.305,2.009-8.084-1.295-10.673l-0.002-0.002c-3.305-2.589-8.083-2.01-10.673,1.295    L280.17,89.353l-14.507-18.514L309.244,15.211z M202.755,15.211l112.394,143.441h-20.221h-8.79L173.743,15.211H202.755z     M154.423,15.211l112.394,143.441H233.27L120.878,15.211H154.423z M173.629,209.524c-3.464,2.047-6.846,4.217-10.139,6.506    v-60.089l10.139,12.94V209.524z M72.541,15.211h29.018l112.393,143.441h-29.016L72.541,15.211z M323.163,201.582    c-20.48-9.335-43.223-14.541-67.159-14.541c-23.939-0.001-46.684,5.208-67.167,14.545v-27.725h134.326V201.582z M348.512,216.022    c-3.295-2.287-6.676-4.458-10.14-6.504v-43.263c0-0.271-0.015-0.537-0.043-0.801c0-0.004-0.001-0.009-0.002-0.014    c-0.033-0.317-0.093-0.627-0.164-0.932c-0.016-0.067-0.033-0.133-0.052-0.2c-0.074-0.278-0.16-0.549-0.264-0.815    c-0.014-0.035-0.024-0.071-0.039-0.105c-0.124-0.303-0.267-0.594-0.426-0.876c-0.028-0.05-0.06-0.098-0.089-0.147    c-0.144-0.241-0.301-0.474-0.47-0.698c-0.025-0.033-0.044-0.07-0.07-0.103l-10.227-13.052h16.915c2.795,0,5.069,2.274,5.069,5.069    V216.022z M346.7,133.592c-1.064-0.172-2.147-0.287-3.26-0.287H317.92l92.528-118.095h29.011L346.7,133.592z" fill="#ffffff"/>
	</g>
</g>
<g>
	<g>
		<path d="M256.004,225.974c-68.122,0-123.545,55.423-123.545,123.545s55.423,123.545,123.545,123.545    s123.545-55.423,123.545-123.545S324.128,225.974,256.004,225.974z M256.004,457.858c-59.738,0-108.337-48.6-108.337-108.337    s48.6-108.337,108.337-108.337c59.737,0,108.337,48.6,108.337,108.337C364.341,409.257,315.742,457.858,256.004,457.858z" fill="#ffffff"/>
	</g>
</g>
<g>
	<g>
		<path d="M286.723,342.541c10.71-5.133,17.852-18.745,17.852-37.268c0-29.458-18.746-39.723-44.855-39.723    c-36.821,0-46.864,23.208-46.864,37.714c0,8.48,1.785,10.935,12.274,10.935c8.48,0,11.158-3.794,11.158-9.596    c0-9.15,5.133-18.299,23.209-18.299c14.504,0,22.315,6.695,22.315,22.985c0,20.308-9.596,24.548-23.208,24.548    c-5.578,0-7.587,4.686-7.587,9.596c0,4.686,2.008,9.372,7.587,9.372c16.291,0,27.225,6.472,27.225,24.325v4.24    c0,19.415-8.703,27.672-27.001,27.673c-18.076,0-26.333-9.595-26.333-19.414c0-6.026-2.455-8.927-12.274-8.927    c-8.034,0-10.935,2.232-10.935,10.042c0,17.628,14.506,39.275,49.318,39.275c28.118,0,50.881-13.166,50.881-48.648v-4.24    C309.485,358.163,299.889,347.674,286.723,342.541z" fill="#ffffff"/>
	</g>
</g>
<g>
</g>
<g>
</g>
<g>
</g>
<g>
</g>
<g>
</g>
<g>
</g>
<g>
</g>
<g>
</g>
<g>
</g>
<g>
</g>
<g>
</g>
<g>
</g>
<g>
</g>
<g>
</g>
<g>
</g>
</svg>
