<?xml version="1.0" encoding="iso-8859-1"?>
<!-- Generator: Adobe Illustrator 19.0.0, SVG Export Plug-In . SVG Version: 6.00 Build 0)  -->
<svg xmlns="http://www.w3.org/2000/svg" xmlns:xlink="http://www.w3.org/1999/xlink" version="1.1" id="Layer_1" x="0px" y="0px" viewBox="0 0 512 512" style="enable-background:new 0 0 512 512;" xml:space="preserve" width="512px" height="512px">
<g>
	<g>
		<path d="M486.985,118.154c13.206,0,23.95-10.745,23.95-23.95V23.95c0-13.206-10.745-23.95-23.95-23.95H280.482    c-13.206,0-23.95,10.745-23.95,23.95v70.254c0,13.206,10.745,23.95,23.95,23.95h95.268v35.127H224.599V23.95    c0-13.206-10.745-23.95-23.95-23.95H96.333c-13.206,0-23.95,10.745-23.95,23.95v129.331H40.981    c-22.011,0-39.917,17.906-39.917,39.917v234.179c0,4.41,3.573,7.983,7.983,7.983c4.41,0,7.983-3.573,7.983-7.983v-19.692h319.867    c4.41,0,7.983-3.573,7.983-7.983s-3.573-7.983-7.983-7.983H17.031v-198.52c0-13.206,10.745-23.95,23.95-23.95h31.401v73.447    H49.497c-4.41,0-7.983,3.573-7.983,7.983c0,4.41,3.573,7.983,7.983,7.983h197.988c4.41,0,7.983-3.573,7.983-7.983    c0-4.41-3.573-7.983-7.983-7.983h-22.886v-73.447h246.42c13.206,0,23.95,10.745,23.95,23.95v198.52H379.476    c-4.41,0-7.983,3.573-7.983,7.983s3.573,7.983,7.983,7.983h115.493v80.366c0,4.403-3.581,7.983-7.983,7.983H25.015    c-4.403,0-7.983-3.581-7.983-7.983v-24.482c0-4.41-3.573-7.983-7.983-7.983c-4.41,0-7.983,3.573-7.983,7.983v24.482    c0,13.206,10.745,23.95,23.95,23.95h461.971c13.206,0,23.95-10.745,23.95-23.95V193.198c0-22.011-17.906-39.917-39.917-39.917    h-79.301v-35.127H486.985z M208.632,242.694H88.349V23.95c0-4.403,3.581-7.983,7.983-7.983h104.316    c4.403,0,7.983,3.581,7.983,7.983V242.694z M280.482,102.187c-4.403,0-7.983-3.581-7.983-7.983V23.95    c0-4.403,3.581-7.983,7.983-7.983h206.503c4.403,0,7.983,3.581,7.983,7.983v70.254c0,4.403-3.581,7.983-7.983,7.983H280.482z" fill="#FFFFFF"/>
	</g>
</g>
<g>
	<g>
		<path d="M477.405,31.933H290.062c-4.41,0-7.983,3.573-7.983,7.983v38.32c0,4.41,3.573,7.983,7.983,7.983h187.343    c4.41,0,7.983-3.573,7.983-7.983v-38.32C485.389,35.507,481.815,31.933,477.405,31.933z M469.422,70.254H298.046V47.9h171.376    V70.254z" fill="#FFFFFF"/>
	</g>
</g>
<g>
	<g>
		<path d="M256,419.393c-17.315,0-31.401,14.086-31.401,31.401s14.086,31.401,31.401,31.401s31.401-14.086,31.401-31.401    S273.315,419.393,256,419.393z M256,466.229c-8.51,0-15.435-6.924-15.435-15.435S247.49,435.36,256,435.36    s15.435,6.924,15.435,15.435S264.51,466.229,256,466.229z" fill="#FFFFFF"/>
	</g>
</g>
<g>
	<g>
		<path d="M409.281,332.108h-34.062c-4.41,0-7.983,3.573-7.983,7.983v34.062c0,4.41,3.573,7.983,7.983,7.983h34.062    c4.41,0,7.983-3.573,7.983-7.983v-34.062C417.264,335.681,413.691,332.108,409.281,332.108z M401.297,366.17h-18.096v-18.096    h18.096V366.17z" fill="#FFFFFF"/>
	</g>
</g>
<g>
	<g>
		<path d="M477.405,332.108h-34.062c-4.41,0-7.983,3.573-7.983,7.983v34.062c0,4.41,3.573,7.983,7.983,7.983h34.062    c4.41,0,7.983-3.573,7.983-7.983v-34.062C485.389,335.681,481.815,332.108,477.405,332.108z M469.422,366.17h-18.096v-18.096    h18.096V366.17z" fill="#FFFFFF"/>
	</g>
</g>
<g>
	<g>
		<path d="M341.156,272.499h-34.062c-4.41,0-7.983,3.573-7.983,7.983v34.062c0,4.41,3.573,7.983,7.983,7.983h34.062    c4.41,0,7.983-3.573,7.983-7.983v-34.062C349.139,276.072,345.566,272.499,341.156,272.499z M333.173,306.561h-18.096v-18.096    h18.096V306.561z" fill="#FFFFFF"/>
	</g>
</g>
<g>
	<g>
		<path d="M409.281,272.499h-34.062c-4.41,0-7.983,3.573-7.983,7.983v34.062c0,4.41,3.573,7.983,7.983,7.983h34.062    c4.41,0,7.983-3.573,7.983-7.983v-34.062C417.264,276.072,413.691,272.499,409.281,272.499z M401.297,306.561h-18.096v-18.096    h18.096V306.561z" fill="#FFFFFF"/>
	</g>
</g>
<g>
	<g>
		<path d="M341.156,332.108H170.844c-4.41,0-7.983,3.573-7.983,7.983v34.062c0,4.41,3.573,7.983,7.983,7.983h170.312    c4.41,0,7.983-3.573,7.983-7.983v-34.062C349.139,335.681,345.566,332.108,341.156,332.108z M333.173,366.17H178.827v-18.096    h154.345V366.17z" fill="#FFFFFF"/>
	</g>
</g>
<g>
	<g>
		<path d="M204.906,272.499h-34.062c-4.41,0-7.983,3.573-7.983,7.983v34.062c0,4.41,3.573,7.983,7.983,7.983h34.062    c4.41,0,7.983-3.573,7.983-7.983v-34.062C212.89,276.072,209.316,272.499,204.906,272.499z M196.923,306.561h-18.096v-18.096    h18.096V306.561z" fill="#FFFFFF"/>
	</g>
</g>
<g>
	<g>
		<path d="M273.031,272.499h-34.062c-4.41,0-7.983,3.573-7.983,7.983v34.062c0,4.41,3.573,7.983,7.983,7.983h34.062    c4.41,0,7.983-3.573,7.983-7.983v-34.062C281.015,276.072,277.441,272.499,273.031,272.499z M265.048,306.561h-18.096v-18.096    h18.096V306.561z" fill="#FFFFFF"/>
	</g>
</g>
<g>
	<g>
		<path d="M68.657,332.108H34.595c-4.41,0-7.983,3.573-7.983,7.983v34.062c0,4.41,3.573,7.983,7.983,7.983h34.062    c4.41,0,7.983-3.573,7.983-7.983v-34.062C76.64,335.681,73.067,332.108,68.657,332.108z M60.674,366.17H42.578v-18.096h18.096    V366.17z" fill="#FFFFFF"/>
	</g>
</g>
<g>
	<g>
		<path d="M136.782,332.108h-34.062c-4.41,0-7.983,3.573-7.983,7.983v34.062c0,4.41,3.573,7.983,7.983,7.983h34.062    c4.41,0,7.983-3.573,7.983-7.983v-34.062C144.765,335.681,141.192,332.108,136.782,332.108z M128.798,366.17h-18.096v-18.096    h18.096V366.17z" fill="#FFFFFF"/>
	</g>
</g>
<g>
	<g>
		<path d="M68.657,272.499H34.595c-4.41,0-7.983,3.573-7.983,7.983v34.062c0,4.41,3.573,7.983,7.983,7.983h34.062    c4.41,0,7.983-3.573,7.983-7.983v-34.062C76.64,276.072,73.067,272.499,68.657,272.499z M60.674,306.561H42.578v-18.096h18.096    V306.561z" fill="#FFFFFF"/>
	</g>
</g>
<g>
	<g>
		<path d="M136.782,272.499h-34.062c-4.41,0-7.983,3.573-7.983,7.983v34.062c0,4.41,3.573,7.983,7.983,7.983h34.062    c4.41,0,7.983-3.573,7.983-7.983v-34.062C144.765,276.072,141.192,272.499,136.782,272.499z M128.798,306.561h-18.096v-18.096    h18.096V306.561z" fill="#FFFFFF"/>
	</g>
</g>
<g>
	<g>
		<path d="M477.405,272.499h-34.062c-4.41,0-7.983,3.573-7.983,7.983v34.062c0,4.41,3.573,7.983,7.983,7.983h34.062    c4.41,0,7.983-3.573,7.983-7.983v-34.062C485.389,276.072,481.815,272.499,477.405,272.499z M469.422,306.561h-18.096v-18.096    h18.096V306.561z" fill="#FFFFFF"/>
	</g>
</g>
<g>
	<g>
		<path d="M461.439,183.085H323.06c-13.206,0-23.95,10.745-23.95,23.95v27.676c0,13.206,10.745,23.95,23.95,23.95h138.378    c13.206,0,23.95-10.745,23.95-23.95v-27.676C485.389,193.83,474.644,183.085,461.439,183.085z M469.422,234.711    c0,4.403-3.581,7.983-7.983,7.983H323.06c-4.403,0-7.983-3.581-7.983-7.983v-27.676c0-4.403,3.581-7.983,7.983-7.983h138.378    c4.403,0,7.983,3.581,7.983,7.983V234.711z" fill="#FFFFFF"/>
	</g>
</g>
<g>
	<g>
		<path d="M179.36,174.57h-57.48c-4.41,0-7.983,3.573-7.983,7.983c0,4.41,3.573,7.983,7.983,7.983h57.48    c4.41,0,7.983-3.573,7.983-7.983C187.343,178.143,183.77,174.57,179.36,174.57z" fill="#FFFFFF"/>
	</g>
</g>
<g>
	<g>
		<path d="M179.36,208.632h-57.48c-4.41,0-7.983,3.573-7.983,7.983c0,4.41,3.573,7.983,7.983,7.983h57.48    c4.41,0,7.983-3.573,7.983-7.983C187.343,212.205,183.77,208.632,179.36,208.632z" fill="#FFFFFF"/>
	</g>
</g>
<g>
	<g>
		<path d="M179.36,64.931c4.41,0,7.983-3.573,7.983-7.983c0-4.41-3.573-7.983-7.983-7.983h-21.821v-9.048    c0-4.41-3.573-7.983-7.983-7.983c-4.41,0-7.983,3.573-7.983,7.983v9.048h-6.919c-10.271,0-18.628,8.357-18.628,18.628v17.031    c0,10.271,8.357,18.628,18.628,18.628h6.919v22.353h-21.821c-4.41,0-7.983,3.573-7.983,7.983c0,4.41,3.573,7.983,7.983,7.983    h21.821v9.048c0,4.41,3.573,7.983,7.983,7.983c4.41,0,7.983-3.573,7.983-7.983v-9.048h6.919c10.271,0,18.628-8.357,18.628-18.628    v-17.031c0-10.271-8.357-18.628-18.628-18.628h-6.919V64.931H179.36z M141.572,87.285h-6.919c-1.468,0-2.661-1.193-2.661-2.661    V67.593c0-1.468,1.193-2.661,2.661-2.661h6.919V87.285z M164.457,103.252c1.468,0,2.661,1.193,2.661,2.661v17.031    c0,1.468-1.193,2.661-2.661,2.661h-6.919v-22.353H164.457z" fill="#FFFFFF"/>
	</g>
</g>
<g>
</g>
<g>
</g>
<g>
</g>
<g>
</g>
<g>
</g>
<g>
</g>
<g>
</g>
<g>
</g>
<g>
</g>
<g>
</g>
<g>
</g>
<g>
</g>
<g>
</g>
<g>
</g>
<g>
</g>
</svg>
