<?xml version="1.0" encoding="iso-8859-1"?>
<!-- Generator: Adobe Illustrator 19.0.0, SVG Export Plug-In . SVG Version: 6.00 Build 0)  -->
<svg version="1.1" id="Layer_1" xmlns="http://www.w3.org/2000/svg" xmlns:xlink="http://www.w3.org/1999/xlink" x="0px" y="0px"
	 viewBox="0 0 511.999 511.999" style="enable-background:new 0 0 511.999 511.999;" xml:space="preserve">
<g>
	<g>
		<path d="M467.733,71.098h-148.88l-9.648-16.712c-6.049-10.477-19.495-14.083-29.976-8.032l-9.952,5.747
			c-1.672,0.965-3.717,0.849-5.208-0.298c-7.461-5.735-15.633-10.463-24.291-14.05c-1.718-0.712-2.829-2.419-2.829-4.349v-11.46
			C236.948,9.844,227.105,0,215.005,0h-32.533c-12.099,0-21.943,9.844-21.943,21.943v11.46c0,1.931-1.111,3.638-2.831,4.351
			c-8.662,3.588-16.837,8.314-24.297,14.047c-1.491,1.146-3.535,1.263-5.208,0.298l-9.947-5.743
			c-10.48-6.048-23.927-2.445-29.974,8.032L78.623,71.1H44.264c-14.278,0-25.894,11.617-25.894,25.894v286.044
			c0,14.278,11.616,25.894,25.894,25.894h121.709v46.745l-20.808,44.066c-1.256,2.66-1.064,5.779,0.512,8.265
			c1.575,2.485,4.313,3.991,7.255,3.991h206.136c2.942,0,5.68-1.506,7.255-3.991c1.575-2.486,1.768-5.605,0.512-8.265
			l-20.808-44.066v-46.745h121.709c14.278,0,25.894-11.617,25.894-25.894V96.993C493.627,82.715,482.011,71.098,467.733,71.098z
			 M335.48,113.004L335.48,113.004c0.14,0,0.252,0.113,0.252,0.253v7.587c0,7.073,4.195,13.38,10.684,16.067
			c4.574,1.895,8.896,4.396,12.847,7.431c5.584,4.293,13.156,4.78,19.285,1.241l6.589-3.803c0.033-0.021,0.089-0.053,0.191-0.025
			c0.101,0.027,0.133,0.084,0.152,0.118l10.769,18.653c0.07,0.12,0.027,0.275-0.093,0.345l-6.585,3.802
			c-6.125,3.535-9.488,10.33-8.57,17.31c0.322,2.448,0.486,4.942,0.486,7.412c0,2.478-0.163,4.977-0.483,7.425
			c-0.914,6.975,2.451,13.765,8.572,17.298l6.58,3.799c0.12,0.07,0.161,0.223,0.093,0.345l-10.769,18.653
			c-0.07,0.119-0.223,0.163-0.344,0.093l-6.585-3.802c-6.128-3.539-13.698-3.054-19.284,1.239c-3.946,3.032-8.27,5.532-12.851,7.429
			c-6.491,2.69-10.686,8.997-10.686,16.068v7.589c0,0.139-0.113,0.252-0.252,0.252H313.94c-0.14,0-0.252-0.113-0.252-0.252v-7.588
			c0-7.07-4.194-13.378-10.684-16.067c-4.577-1.896-8.899-4.396-12.847-7.431c-5.585-4.292-13.155-4.78-19.286-1.241l-6.588,3.804
			c-0.12,0.07-0.274,0.026-0.345-0.093l-6.024-10.433c2.1-1.39,4.157-2.849,6.158-4.387c1.49-1.146,3.534-1.263,5.208-0.298
			l9.947,5.743c6.417,3.704,13.938,3.773,20.2,0.878c7.525,4.896,16.194,7.472,25.28,7.472c25.639,0,46.497-20.859,46.497-46.498
			c0-25.639-20.859-46.497-46.497-46.497c-6.698,0-13.167,1.406-19.121,4.101c0.311-3.338,0.475-6.704,0.475-10.049
			c0-4.667-0.309-9.38-0.918-14.009c-0.245-1.866,0.674-3.693,2.346-4.658l9.138-5.276H335.48z M327.664,174.682
			c-1.517-5.661-5.149-10.393-10.224-13.323l-0.434-0.251c2.484-0.672,5.063-1.035,7.704-1.035
			c16.167,0,29.319,13.151,29.319,29.319c0,16.168-13.153,29.321-29.319,29.321c-4.669,0-9.156-1.09-13.224-3.156l13.985-24.223
			C328.402,186.259,329.18,180.345,327.664,174.682z M86.882,91.151l16.266-28.175c1.315-2.277,4.234-3.057,6.51-1.744l9.946,5.743
			c7.716,4.454,17.24,3.847,24.264-1.553c6.267-4.816,13.131-8.786,20.402-11.797c8.162-3.379,13.435-11.317,13.435-20.221V21.943
			c0-2.628,2.138-4.765,4.765-4.765h32.533c2.627,0,4.765,2.137,4.765,4.765v11.461c0,8.902,5.273,16.838,13.432,20.219
			c7.266,3.012,14.129,6.982,20.398,11.8c7.025,5.4,16.55,6.009,24.266,1.554l9.952-5.747c2.278-1.311,5.197-0.531,6.51,1.744
			l16.266,28.175c0.637,1.103,0.805,2.387,0.476,3.615c-0.216,0.807-0.647,1.513-1.217,2.092c-0.595,0.323-1.142,0.72-1.642,1.169
			l-9.307,5.376c-7.709,4.45-11.944,12.998-10.789,21.776c0.512,3.889,0.772,7.849,0.772,11.768c0,3.935-0.259,7.9-0.767,11.788
			c-1.149,8.771,3.086,17.312,10.79,21.761l9.941,5.74c1.102,0.637,1.891,1.664,2.219,2.893c0.329,1.229,0.16,2.513-0.476,3.615
			l-16.266,28.175c-1.315,2.277-4.236,3.055-6.51,1.744l-9.947-5.743c-7.713-4.453-17.238-3.844-24.263,1.551
			c-6.265,4.814-13.13,8.784-20.403,11.797c-8.162,3.379-13.435,11.317-13.435,20.22v11.463c0,2.628-2.138,4.765-4.765,4.765
			h-32.533c-2.627,0-4.765-2.137-4.765-4.765v-11.461c0-8.902-5.272-16.838-13.432-20.219c-7.266-3.012-14.129-6.982-20.398-11.8
			c-3.897-2.996-8.565-4.517-13.265-4.517c-3.771,0-7.566,0.979-11.001,2.963l-9.952,5.747c-2.276,1.314-5.196,0.534-6.51-1.744
			l-16.266-28.175c-0.637-1.103-0.805-2.387-0.476-3.615c0.329-1.229,1.118-2.257,2.221-2.893l9.946-5.744
			c7.709-4.45,11.944-12.998,10.789-21.777c-0.512-3.888-0.772-7.847-0.772-11.767c0-3.935,0.259-7.9,0.767-11.788
			c1.149-8.771-3.086-17.312-10.79-21.761l-9.941-5.74c-1.102-0.637-1.891-1.664-2.219-2.893S86.245,92.254,86.882,91.151z
			 M166.485,494.822l13.519-28.63h110.35c4.743,0,8.589-3.844,8.589-8.589s-3.846-8.589-8.589-8.589H183.151v-40.082h145.696v48.671
			c0,1.268,0.281,2.521,0.822,3.667l15.843,33.552H166.485z M476.449,383.038c0,4.814-3.903,8.716-8.716,8.716H44.264
			c-4.813,0-8.716-3.903-8.716-8.716v-65.722h326.001c4.743,0,8.589-3.846,8.589-8.589s-3.846-8.589-8.589-8.589H35.548V96.993
			c0-4.814,3.903-8.716,8.716-8.716h25.443c-0.839,3.383-0.868,6.93-0.031,10.398c1.451,6.011,5.515,11.064,10.871,14.156
			l9.431,5.445c1.67,0.964,2.592,2.792,2.348,4.654c-0.606,4.623-0.913,9.34-0.913,14.017c0,4.668,0.309,9.381,0.918,14.009
			c0.245,1.866-0.676,3.693-2.347,4.658l-9.522,5.498c-4.763,2.751-8.526,7.057-10.261,12.276
			c-2.011,6.047-1.349,12.48,1.805,17.943l16.266,28.175c6.049,10.477,19.496,14.083,29.976,8.032l9.952-5.747
			c1.674-0.964,3.719-0.849,5.21,0.298c7.461,5.735,15.633,10.463,24.291,14.05c1.718,0.712,2.829,2.419,2.829,4.349v11.461
			c0,12.118,9.825,21.943,21.943,21.943h32.533c12.118,0,21.943-9.825,21.943-21.943v-11.463c0-1.931,1.111-3.638,2.831-4.351
			c1.041-0.431,2.074-0.881,3.101-1.344l6.183,10.71c4.805,8.324,15.487,11.184,23.811,6.38l6.588-3.804
			c0.097-0.055,0.194-0.042,0.228-0.016c5.14,3.951,10.772,7.209,16.739,9.682c0.023,0.009,0.082,0.084,0.082,0.198v7.588
			c0,9.627,7.803,17.43,17.43,17.43h21.539c9.627,0,17.43-7.803,17.43-17.43v-7.588c0-0.123,0.066-0.192,0.081-0.198
			c5.97-2.472,11.603-5.728,16.743-9.678c0.036-0.026,0.132-0.039,0.228,0.016l6.585,3.802c8.326,4.808,19.005,1.943,23.81-6.38
			l10.769-18.653c4.813-8.337,1.957-18.997-6.38-23.81l-6.58-3.799c-0.096-0.056-0.133-0.147-0.127-0.19
			c0.417-3.187,0.629-6.436,0.629-9.659c0-3.218-0.213-6.466-0.633-9.654c-0.007-0.054,0.038-0.14,0.127-0.191l6.585-3.802
			c8.336-4.813,11.193-15.474,6.38-23.81l-10.769-18.653c-4.812-8.336-15.471-11.192-23.808-6.38l-6.592,3.804
			c-0.096,0.056-0.194,0.044-0.229,0.016c-5.143-3.953-10.775-7.21-16.741-9.683c-0.014-0.006-0.08-0.074-0.08-0.197v-7.587
			c0-9.627-7.805-17.431-17.431-17.431h-7.209c0.273-2.542,0.11-5.088-0.5-7.549h139.964c4.813,0,8.716,3.902,8.716,8.716v203.145
			h-73.061c-4.743,0-8.589,3.846-8.589,8.589s3.846,8.589,8.589,8.589h73.063V383.038z"/>
	</g>
</g>
<g>
	<g>
		<path d="M255.998,323.042c-17.366,0-31.493,14.128-31.493,31.493c0,17.365,14.127,31.493,31.493,31.493
			s31.493-14.128,31.493-31.493C287.491,337.171,273.364,323.042,255.998,323.042z M255.998,368.85
			c-7.894,0-14.315-6.421-14.315-14.315s6.421-14.315,14.315-14.315c7.894,0,14.315,6.421,14.315,14.315
			S263.892,368.85,255.998,368.85z"/>
	</g>
</g>
<g>
	<g>
		<path d="M198.738,71.098c-36.31,0-65.849,29.539-65.849,65.849s29.539,65.849,65.849,65.849c36.31,0,65.849-29.539,65.849-65.849
			C264.587,100.638,235.048,71.098,198.738,71.098z M198.738,185.618c-26.838,0-48.671-21.833-48.671-48.671
			s21.833-48.671,48.671-48.671c26.838,0,48.671,21.833,48.671,48.671S225.576,185.618,198.738,185.618z"/>
	</g>
</g>
<g>
</g>
<g>
</g>
<g>
</g>
<g>
</g>
<g>
</g>
<g>
</g>
<g>
</g>
<g>
</g>
<g>
</g>
<g>
</g>
<g>
</g>
<g>
</g>
<g>
</g>
<g>
</g>
<g>
</g>
</svg>
