<?xml version="1.0" encoding="iso-8859-1"?>
<!-- Generator: Adobe Illustrator 19.0.0, SVG Export Plug-In . SVG Version: 6.00 Build 0)  -->
<svg version="1.1" id="Layer_1" xmlns="http://www.w3.org/2000/svg" xmlns:xlink="http://www.w3.org/1999/xlink" x="0px" y="0px"
	 viewBox="0 0 512 512" style="enable-background:new 0 0 512 512;" xml:space="preserve">
<g>
	<g>
		<path d="M511.724,106.236c-0.784-2.823-3.128-4.938-6.016-5.43l-41.764-7.108l1.055-1.055c6.03-6.03,9.352-14.074,9.352-22.65
			c0-8.575-3.321-16.62-9.352-22.65c-12.49-12.49-32.812-12.49-45.301,0l-1.281,1.281l-7.201-42.31
			c-0.491-2.888-2.607-5.232-5.43-6.016c-2.824-0.784-5.844,0.132-7.755,2.353l-38.222,44.416
			c-34.843-18.113-73.992-27.67-113.517-27.67c-40.247,0-80.183,9.925-115.489,28.703c-3.687,1.961-5.086,6.539-3.125,10.225
			c1.961,3.688,6.542,5.087,10.225,3.125C171.03,43.831,208.51,34.518,246.29,34.518c35.907,0,71.474,8.404,103.364,24.349
			l-4.735,5.502c-1.397,1.624-2.04,3.765-1.768,5.891l5.758,44.998c-30.284-20.734-65.577-31.655-102.618-31.655
			c-100.402,0-182.085,81.682-182.085,182.084s81.682,182.085,182.085,182.085c100.402,0,182.084-81.682,182.084-182.085
			c0-36.997-10.91-72.296-31.622-102.576l45.008,5.759c0.321,0.041,0.641,0.061,0.96,0.061c1.799,0,3.552-0.643,4.932-1.83
			l5.478-4.715c15.92,31.851,24.33,67.442,24.33,103.299c0,127.467-103.702,231.17-231.17,231.17S15.122,393.155,15.122,265.687
			c0-64.417,25.847-124.215,72.778-168.379c3.041-2.862,3.187-7.646,0.325-10.688c-2.861-3.041-7.646-3.187-10.688-0.325
			c-24.223,22.794-43.287,49.717-56.664,80.018C7.022,197.686,0,231.12,0,265.687c0,65.787,25.619,127.636,72.137,174.154
			c46.518,46.518,108.367,72.137,174.154,72.137s127.636-25.619,174.154-72.137c46.518-46.519,72.137-108.368,72.137-174.154
			c0-39.474-9.558-78.661-27.644-113.46l44.433-38.236C511.591,112.08,512.508,109.058,511.724,106.236z M399.006,24.701
			l6.303,37.032L362.75,104.29l-4.174-32.609L399.006,24.701z M413.253,265.689c0.001,92.062-74.899,166.962-166.962,166.962
			c-92.064,0-166.964-74.899-166.964-166.964c0-92.064,74.899-166.963,166.964-166.963c33.703,0,65.824,9.859,93.443,28.582
			l-39.425,39.425c-16.508-9.023-35.054-13.782-54.019-13.782c-62.165,0-112.739,50.575-112.739,112.739
			s50.575,112.739,112.739,112.739S359.03,327.853,359.03,265.688c0-18.777-4.671-37.161-13.526-53.548l39.46-39.46
			C403.494,200.207,413.253,232.186,413.253,265.689z M257.493,278.764c-6.594,6.595-17.322,6.595-23.916,0
			c-6.594-6.594-6.594-17.322,0-23.916l37.653-37.653c2.953-2.953,2.953-7.74,0-10.692c-2.953-2.953-7.74-2.953-10.692,0
			l-6.039,6.039c-2.707-0.414-5.457-0.625-8.207-0.625c-29.649,0-53.771,24.122-53.771,53.77c0,29.649,24.122,53.771,53.771,53.771
			c29.649,0,53.77-24.122,53.77-53.771c0-2.53-0.185-5.074-0.535-7.571l34.749-34.749c6.322,13.135,9.632,27.588,9.632,42.32
			c0,53.827-43.791,97.618-97.618,97.618s-97.618-43.791-97.618-97.618c0-53.827,43.791-97.618,97.618-97.618
			c14.922,0,29.543,3.394,42.808,9.871l-8.789,8.789c-2.953,2.953-2.953,7.74,0,10.692c2.953,2.954,7.74,2.953,10.692,0
			l15.977-15.977c0.029-0.03,0.06-0.058,0.089-0.089l49.302-49.302c0.232-0.203,0.452-0.425,0.661-0.661l73.357-73.357
			c6.596-6.594,17.324-6.593,23.917,0c3.174,3.174,4.924,7.422,4.924,11.958c0,4.536-1.748,8.783-4.924,11.958l-10.271,10.27
			c-1.003,0.618-1.86,1.465-2.485,2.485L257.493,278.764z M222.884,289.456c6.244,6.245,14.448,9.367,22.651,9.367
			c8.203,0,16.406-3.122,22.65-9.367l15.961-15.961c-3.621,17.581-19.218,30.842-37.856,30.842c-21.311,0-38.65-17.338-38.65-38.65
			c0-18.947,13.709-34.742,31.727-38.016l-16.483,16.483C210.395,256.645,210.395,276.967,222.884,289.456z M440.341,153.444
			l-32.043-4.101l42.538-42.538l36.485,6.209L440.341,153.444z"/>
	</g>
</g>
<g>
</g>
<g>
</g>
<g>
</g>
<g>
</g>
<g>
</g>
<g>
</g>
<g>
</g>
<g>
</g>
<g>
</g>
<g>
</g>
<g>
</g>
<g>
</g>
<g>
</g>
<g>
</g>
<g>
</g>
</svg>
