<?xml version="1.0" encoding="UTF-8" standalone="no"?>
<!-- Generator: Adobe Illustrator 18.0.0, SVG Export Plug-In . SVG Version: 6.00 Build 0)  -->

<svg
   xmlns:dc="http://purl.org/dc/elements/1.1/"
   xmlns:cc="http://creativecommons.org/ns#"
   xmlns:rdf="http://www.w3.org/1999/02/22-rdf-syntax-ns#"
   xmlns:svg="http://www.w3.org/2000/svg"
   xmlns="http://www.w3.org/2000/svg"
   xmlns:sodipodi="http://sodipodi.sourceforge.net/DTD/sodipodi-0.dtd"
   xmlns:inkscape="http://www.inkscape.org/namespaces/inkscape"
   version="1.1"
   id="Capa_1"
   x="0px"
   y="0px"
   viewBox="0 0 60 60"
   style="enable-background:new 0 0 60 60;"
   xml:space="preserve"
   sodipodi:docname="products.svg"
   inkscape:version="0.92.1 r15371"><metadata
     id="metadata57"><rdf:RDF><cc:Work
         rdf:about=""><dc:format>image/svg+xml</dc:format><dc:type
           rdf:resource="http://purl.org/dc/dcmitype/StillImage" /></cc:Work></rdf:RDF></metadata><defs
     id="defs55" /><sodipodi:namedview
     pagecolor="#ffffff"
     bordercolor="#666666"
     borderopacity="1"
     objecttolerance="10"
     gridtolerance="10"
     guidetolerance="10"
     inkscape:pageopacity="0"
     inkscape:pageshadow="2"
     inkscape:window-width="1920"
     inkscape:window-height="1013"
     id="namedview53"
     showgrid="false"
     inkscape:zoom="13.666667"
     inkscape:cx="30"
     inkscape:cy="30"
     inkscape:window-x="-9"
     inkscape:window-y="-9"
     inkscape:window-maximized="1"
     inkscape:current-layer="g20" /><g
     id="g20"><path
       d="M49.554,0H10.446L0,16.713V60h60V16.713L49.554,0z M57.196,16H31V2h17.446L57.196,16z M11.554,2H29v14H2.804L11.554,2z    M2,58V18h56v40H2z"
       id="path10"
       style="fill:#ffffff" /><path
       d="M36,23H24c-1.654,0-3,1.346-3,3s1.346,3,3,3h12c1.654,0,3-1.346,3-3S37.654,23,36,23z M36,27H24c-0.551,0-1-0.448-1-1   s0.449-1,1-1h12c0.551,0,1,0.448,1,1S36.551,27,36,27z"
       id="path12"
       style="fill:#ffffff" /><path
       d="M38,52H22c-0.552,0-1,0.447-1,1s0.448,1,1,1h16c0.552,0,1-0.447,1-1S38.552,52,38,52z"
       id="path14"
       style="fill:#ffffff" /><path
       d="M25,50c0.552,0,1-0.447,1-1v-6.586l1.293,1.293C27.488,43.902,27.744,44,28,44s0.512-0.098,0.707-0.293   c0.391-0.391,0.391-1.023,0-1.414l-2.999-2.999c-0.092-0.093-0.203-0.166-0.326-0.217c-0.244-0.101-0.52-0.101-0.764,0   c-0.123,0.051-0.233,0.124-0.326,0.217l-2.999,2.999c-0.391,0.391-0.391,1.023,0,1.414C21.488,43.902,21.744,44,22,44   s0.512-0.098,0.707-0.293L24,42.414V49C24,49.553,24.448,50,25,50z"
       id="path16"
       style="fill:#ffffff" /><path
       d="M35.708,39.294c-0.092-0.093-0.203-0.166-0.326-0.217c-0.244-0.101-0.52-0.101-0.764,0   c-0.123,0.051-0.233,0.124-0.326,0.217l-2.999,2.999c-0.391,0.391-0.391,1.023,0,1.414C31.488,43.902,31.744,44,32,44   s0.512-0.098,0.707-0.293L34,42.414V49c0,0.553,0.448,1,1,1s1-0.447,1-1v-6.586l1.293,1.293C37.488,43.902,37.744,44,38,44   s0.512-0.098,0.707-0.293c0.391-0.391,0.391-1.023,0-1.414L35.708,39.294z"
       id="path18"
       style="fill:#ffffff" /></g><g
     id="g22" /><g
     id="g24" /><g
     id="g26" /><g
     id="g28" /><g
     id="g30" /><g
     id="g32" /><g
     id="g34" /><g
     id="g36" /><g
     id="g38" /><g
     id="g40" /><g
     id="g42" /><g
     id="g44" /><g
     id="g46" /><g
     id="g48" /><g
     id="g50" /></svg>