<?xml version="1.0" encoding="iso-8859-1"?>
<!-- Generator: Adobe Illustrator 19.0.0, SVG Export Plug-In . SVG Version: 6.00 Build 0)  -->
<svg version="1.1" id="Layer_1" xmlns="http://www.w3.org/2000/svg" xmlns:xlink="http://www.w3.org/1999/xlink" x="0px" y="0px"
	 viewBox="0 0 512 512" style="enable-background:new 0 0 512 512;" xml:space="preserve">
<g>
	<g>
		<g>
			<path d="M213.223,234.382h-46.349c-4.466,0-8.084,3.62-8.084,8.084c0,4.465,3.618,8.084,8.084,8.084h46.349
				c4.466,0,8.084-3.62,8.084-8.084C221.307,238.001,217.688,234.382,213.223,234.382z"/>
			<path d="M409.6,480.142h46.349c4.466,0,8.084-3.618,8.084-8.084c0-4.465-3.619-8.084-8.084-8.084H409.6
				c-4.466,0-8.084,3.62-8.084,8.084C401.516,476.523,405.134,480.142,409.6,480.142z"/>
			<path d="M151.983,79.165h46.349c4.466,0,8.084-3.62,8.084-8.084c0-4.465-3.619-8.084-8.084-8.084h-46.349
				c-4.466,0-8.084,3.62-8.084,8.084C143.899,75.545,147.517,79.165,151.983,79.165z"/>
			<path d="M213.223,261.329h-46.349c-4.466,0-8.084,3.619-8.084,8.084s3.618,8.084,8.084,8.084h46.349
				c4.466,0,8.084-3.619,8.084-8.084C221.307,264.949,217.688,261.329,213.223,261.329z"/>
			<path d="M166.873,448.883h46.349c4.466,0,8.084-3.619,8.084-8.084c0-4.465-3.618-8.084-8.084-8.084h-46.349
				c-4.466,0-8.084,3.62-8.084,8.084C158.789,445.264,162.409,448.883,166.873,448.883z"/>
			<path d="M166.873,475.83h46.349c4.466,0,8.084-3.618,8.084-8.084c0-4.465-3.618-8.084-8.084-8.084h-46.349
				c-4.466,0-8.084,3.62-8.084,8.084C158.789,472.212,162.409,475.83,166.873,475.83z"/>
			<path d="M497.795,400.982h-56.534v-85.698c0-4.466-3.618-8.084-8.084-8.084c-4.466,0-8.084,3.618-8.084,8.084v85.698h-62.589
				c-7.833,0-14.205,6.371-14.205,14.205v27.236v53.409h-91.831c-0.709,0-1.286-0.578-1.286-1.287v-3.564V316.359v-25.87v-91.916
				c0-0.71,0.577-1.287,1.286-1.287h47.56v92.161c0,3.099,1.772,5.925,4.561,7.276c2.787,1.351,6.105,0.988,8.536-0.933
				l23.013-18.19l23.013,18.19c1.455,1.15,3.227,1.742,5.013,1.742c1.198,0,2.403-0.266,3.523-0.808
				c2.79-1.351,4.561-4.177,4.561-7.276v-92.161h47.558c0.71,0,1.288,0.578,1.288,1.287v89.764c0,4.466,3.618,8.084,8.084,8.084
				c4.466,0,8.084-3.619,8.084-8.084v-89.764c0-9.626-7.832-17.455-17.456-17.455h-55.642h-56.05h-55.644
				c-0.434,0-0.86,0.033-1.286,0.065v-65.315c0-3.843-1.054-7.436-2.862-10.54c1.788-2.376,2.862-5.318,2.862-8.514V41.439V14.203
				C255.181,6.371,248.809,0,240.977,0H105.684c-7.832,0-14.202,6.371-14.202,14.203V41.44v53.41H21.019
				C9.429,94.849,0,104.279,0,115.868V290.49c0,4.879,1.686,9.364,4.486,12.935C1.686,306.995,0,311.48,0,316.359v174.622
				C0,502.571,9.429,512,21.019,512H184.5c4.466,0,8.084-3.618,8.084-8.084c0-4.466-3.618-8.084-8.084-8.084H21.019
				c-2.674,0-4.851-2.176-4.851-4.851V316.359c0-2.675,2.176-4.851,4.851-4.851h70.463v92.161c0,3.099,1.772,5.925,4.561,7.276
				c2.787,1.351,6.105,0.988,8.536-0.933l23.013-18.189l23.013,18.189c1.455,1.15,3.227,1.742,5.013,1.742
				c1.198,0,2.403-0.266,3.523-0.808c2.79-1.351,4.561-4.177,4.561-7.276v-92.161h70.461c2.674,0,4.851,2.175,4.851,4.851v174.622
				c0,2.674-2.176,4.851-4.851,4.851h-21.995c-4.466,0-8.084,3.619-8.084,8.084c0,4.466,3.618,8.084,8.084,8.084h21.995
				c4.345,0,8.386-1.326,11.74-3.593c2.937,2.244,6.591,3.593,10.564,3.593l105.862-0.001C362.386,512,362.442,512,362.5,512
				l0.002-0.001h135.293c7.833,0,14.204-6.37,14.204-14.202v-55.375v-27.236C512,407.354,505.629,400.982,497.795,400.982z
				 M320.196,197.285h39.882v75.467l-14.929-11.799c-1.468-1.161-3.241-1.742-5.012-1.742c-1.771,0-3.544,0.581-5.012,1.742
				l-14.929,11.799V197.285z M107.65,111.017h39.882v75.467l-14.929-11.8c-1.468-1.162-3.241-1.742-5.012-1.742
				s-3.544,0.581-5.012,1.742l-14.929,11.8V111.017z M147.533,386.975l-14.929-11.799c-1.468-1.161-3.241-1.742-5.012-1.742
				s-3.544,0.581-5.012,1.742l-14.929,11.799v-75.467h39.882V386.975z M239.012,198.573v91.916c0,2.674-2.176,4.851-4.851,4.851
				h-78.545H99.566H21.019c-2.674,0-4.851-2.176-4.851-4.851V115.867c0-2.674,2.176-4.851,4.851-4.851h70.463v92.161
				c0,3.099,1.772,5.925,4.561,7.276c2.787,1.352,6.105,0.988,8.536-0.933l23.013-18.189l23.013,18.189
				c1.455,1.15,3.227,1.742,5.013,1.742c1.198,0,2.403-0.266,3.523-0.808c2.79-1.351,4.561-4.177,4.561-7.276v-92.161h70.461
				c2.674,0,4.851,2.176,4.851,4.851V198.573z M239.012,94.848h-4.851h-78.545H107.65V49.523h131.362V94.848z M239.012,33.354
				H107.65V16.168h131.362V33.354z M495.832,495.831H364.467v-45.324h131.364V495.831z M495.832,434.338H364.467v-17.187h68.709
				h62.655V434.338z"/>
		</g>
	</g>
</g>
<g>
</g>
<g>
</g>
<g>
</g>
<g>
</g>
<g>
</g>
<g>
</g>
<g>
</g>
<g>
</g>
<g>
</g>
<g>
</g>
<g>
</g>
<g>
</g>
<g>
</g>
<g>
</g>
<g>
</g>
</svg>
